<?xml version="1.0" encoding="utf-8"?>
<!-- Generator: Adobe Illustrator 27.5.0, SVG Export Plug-In . SVG Version: 6.00 Build 0)  -->
<svg version="1.1" xmlns="http://www.w3.org/2000/svg" xmlns:xlink="http://www.w3.org/1999/xlink" x="0px" y="0px"
	 viewBox="0 0 800 800" style="enable-background:new 0 0 800 800;" xml:space="preserve">
<g id="BACKGROUND">
	<rect x="532.962" style="fill:#E6E7E8;" width="267.038" height="269"/>
	<rect y="269" style="fill:#E6E7E8;" width="266.288" height="269"/>
	<rect x="263.764" y="268.801" style="fill:#F1F2F2;" width="269" height="269"/>
	<rect x="532.999" y="268.167" style="fill:#D1D3D4;" width="267.001" height="269"/>
	<rect y="537" style="fill:#D1D3D4;" width="266.667" height="263"/>
	<rect x="264.028" y="537.166" style="fill:#E6E7E8;" width="269" height="262.834"/>
	<rect x="532.961" y="537.124" style="fill:#F1F2F2;" width="267.039" height="262.876"/>
	<rect style="fill:#F1F2F2;" width="266.042" height="269"/>
	<rect x="263.99" style="fill:#D1D3D4;" width="269" height="269"/>
</g>
<g id="OBJECTS">
	<g>
		<path style="fill:#58595B;" d="M730.233,144.312c0-7.588-4.519-13.279-12.796-13.279c-8.277,0-14.951,0.535-14.951,9.778
			c0,5.794,0.155,8.433,0.155,8.433h-18.106v-7.295l-5.997-0.035l0.118,54.358c16.085,0.026,30.174,0.049,32.987,0.049
			c2.793,2.897,5.346,4.139,11.278,4.001C743.989,199.834,730.233,151.899,730.233,144.312z M716.134,136.914
			c4.563,0,8.276,2.6,8.276,5.794c0,3.195-3.713,6.623-8.276,6.623c-4.563,0-8.275-3.427-8.275-6.623
			C707.858,139.514,711.571,136.914,716.134,136.914z M707.039,161.762h6.415v6.759h-6.415V161.762z M716.695,161.883h6.415v6.76
			h-6.415V161.883z M697.485,161.762h6.415v6.759h-6.415V161.762z M687.777,161.883h6.415v6.76h-6.415V161.883z M727.715,190.045
			h-39.973v-18.418h39.973V190.045z"/>
		<rect x="628.317" y="83.163" style="fill:#58595B;" width="66.219" height="25.453"/>
		<polygon style="fill:#58595B;" points="692.467,77.162 689.569,77.162 689.569,70.333 634.111,70.333 634.111,77.162 
			628.11,77.162 628.11,81.507 692.467,81.507 		"/>
		<rect x="629.766" y="110.271" style="fill:#58595B;" width="63.115" height="3.518"/>
		<rect x="632.456" y="115.858" style="fill:#58595B;" width="58.976" height="3.518"/>
		<rect x="707.866" y="162.59" style="fill:#58595B;" width="4.76" height="5.104"/>
		<rect x="717.523" y="162.711" style="fill:#58595B;" width="4.759" height="5.104"/>
		<rect x="688.604" y="162.711" style="fill:#58595B;" width="4.76" height="5.104"/>
		<rect x="698.313" y="162.59" style="fill:#58595B;" width="4.76" height="5.104"/>
		<path style="fill:#58595B;" d="M629.802,170.248c-4.336,0-7.864,3.527-7.864,7.863c0,4.336,3.528,7.863,7.864,7.863
			c4.336,0,7.863-3.527,7.863-7.863C637.665,173.775,634.138,170.248,629.802,170.248z M629.802,182.388
			c-2.362,0-4.277-1.915-4.277-4.276c0-2.362,1.915-4.277,4.277-4.277c2.361,0,4.276,1.915,4.276,4.277
			C634.078,180.473,632.163,182.388,629.802,182.388z"/>
		<path style="fill:#58595B;" d="M716.134,147.099c3.789,0,6.871-1.969,6.871-4.39c0-2.42-3.082-4.39-6.871-4.39
			c-3.788,0-6.87,1.97-6.87,4.39C709.264,145.129,712.346,147.099,716.134,147.099z M716.134,140.317
			c1.966,0,3.557,1.071,3.557,2.392c0,1.32-1.591,2.392-3.557,2.392c-1.965,0-3.556-1.071-3.556-2.392
			C712.578,141.388,714.169,140.317,716.134,140.317z"/>
		<rect x="632.629" y="121.79" style="fill:#58595B;" width="58.769" height="12.002"/>
		<rect x="632.481" y="135.078" style="fill:#58595B;" width="58.77" height="4.966"/>
		<path style="fill:#58595B;" d="M647.286,141.733l-0.184,54.485c9.136,0.016,19.84,0.033,29.898,0.05l-0.119-54.364
			L647.286,141.733z M658.428,189.855h-6.416v-23.539h6.416V189.855z M673.207,189.855h-6.828v-23.539h6.828V189.855z"/>
		<path style="fill:#58595B;" d="M639.94,149.071l-11.381,0.069l0.103,5.069c0,0-14.313-1.207-14.313,21.142
			c0,7.312-2.069,20.831,9.933,20.831c1.574,0,10.052,0.014,21.165,0.032l0.182-54.492l-5.757-0.033L639.94,149.071z
			 M629.802,188.458c-5.706,0-10.348-4.642-10.348-10.347c0-5.705,4.642-10.347,10.348-10.347c5.705,0,10.347,4.642,10.347,10.347
			C640.148,183.816,635.507,188.458,629.802,188.458z"/>
	</g>
	<g>
		<path style="fill:#58595B;" d="M185.928,648.958l-5.97,0.027v-3.035h2.045v-5.551h-9.302v5.551h2.26v3.058l-6.952,0.032v-3.275
			h2.046v-5.549h-9.305v5.549h2.262v3.299l-4.673,0.021l-2.296-8.855l-8.007,0.019v-9.873h6.523v-8.454h-3.146v-5.393l11.393-14.755
			v-21.868h-27.713v-0.035h-27.728v21.869l11.396,14.755v5.393h-3.149v8.453h6.524v9.967l-5.879,0.014l-2.761,8.729l-3.376-0.009
			v-2.908h2.046v-5.551h-9.305v5.551h2.262v2.896l-11.552-0.029v-3.132h4.856v-5.412H78.488v5.412h4.992v3.106l-6.119-0.016
			c-4.453,0-8.063,3.611-8.063,8.063v59.565c0,4.454,3.609,8.063,8.063,8.063h39.451c5.277,3.891,11.771,6.218,18.827,6.218
			c7.058,0,13.555-2.327,18.829-6.218h31.459c4.453,0,8.063-3.609,8.063-8.063v-59.565
			C193.991,652.569,190.381,648.958,185.928,648.958z M113.843,597.949v-13.417h43.005v13.417H113.843z M94.109,711.477h-6.25
			v-47.691h6.25V711.477z M136.562,720.94c-16.493,0-29.862-13.37-29.862-29.863c0-16.493,13.37-29.863,29.862-29.863
			s29.862,13.37,29.862,29.863C166.424,707.57,153.055,720.94,136.562,720.94z M164.865,663.419c-1.93,0-3.494-1.563-3.494-3.492
			c0-1.929,1.564-3.491,3.494-3.491c1.93,0,3.494,1.563,3.494,3.491C168.359,661.856,166.795,663.419,164.865,663.419z
			 M171.756,655.7h17.734v8.404h-17.734V655.7z M171.985,699.21h17.504v6.754h-17.504V699.21z M189.628,715.199h-17.505v-6.755
			h17.505V715.199z"/>
		<path style="fill:#58595B;" d="M136.562,667.553c-12.972,0-23.525,10.554-23.525,23.524c0,12.972,10.554,23.525,23.525,23.525
			c12.971,0,23.524-10.554,23.524-23.525C160.086,678.106,149.533,667.553,136.562,667.553z M136.562,710.191
			c-10.539,0-19.114-8.574-19.114-19.114c0-10.539,8.574-19.113,19.114-19.113c10.54,0,19.113,8.574,19.113,19.113
			C155.675,701.617,147.102,710.191,136.562,710.191z"/>
		<path style="fill:#58595B;" d="M136.562,673.801c-9.528,0-17.276,7.75-17.276,17.276c0,9.526,7.749,17.277,17.276,17.277
			c9.527,0,17.277-7.751,17.277-17.277C153.839,681.551,146.089,673.801,136.562,673.801z M136.562,706.148
			c-8.309,0-15.071-6.762-15.071-15.071c0-8.308,6.763-15.07,15.071-15.07c8.309,0,15.072,6.762,15.072,15.07
			C151.634,699.387,144.871,706.148,136.562,706.148z"/>
	</g>
	<g>
		<path style="fill:#58595B;" d="M708.5,642.199c-16.41,0-29.76,13.35-29.76,29.76c0,16.411,13.35,29.761,29.76,29.761
			c16.41,0,29.761-13.35,29.761-29.761C738.261,655.549,724.91,642.199,708.5,642.199z M708.5,697.816
			c-14.259,0-25.858-11.6-25.858-25.857c0-14.259,11.6-25.857,25.858-25.857s25.857,11.599,25.857,25.857
			C734.357,686.217,722.759,697.816,708.5,697.816z"/>
		<path style="fill:#58595B;" d="M708.5,649.19c-12.555,0-22.769,10.215-22.769,22.769c0,12.555,10.214,22.768,22.769,22.768
			s22.769-10.214,22.769-22.768C731.269,659.405,721.055,649.19,708.5,649.19z M708.5,692.776c-11.479,0-20.816-9.339-20.816-20.817
			c0-11.478,9.338-20.816,20.816-20.816c11.478,0,20.817,9.338,20.817,20.816C729.317,683.438,719.978,692.776,708.5,692.776z"/>
		<path style="fill:#58595B;" d="M644.914,611.462h-15.125v5.62h-7.155v-5.132H607.51v5.132h-10.914
			c-2.864,0-5.186,2.321-5.186,5.186v5.009c-3.742,0.567-8.237,3.96-11.338,16.508l-0.835-0.144
			c-1.347-0.229-2.622,0.675-2.853,2.019l-0.139,0.812c-0.194,1.135,0.424,2.211,1.427,2.662c0.304,0.326,0.695,0.568,1.149,0.692
			c-0.198,1.146-0.387,2.344-0.564,3.604l-0.264-0.032c-1.354-0.173-2.591,0.785-2.763,2.138l-0.104,0.815
			c-0.174,1.354,0.784,2.59,2.138,2.763l0.3,0.038c-0.481,4.686-0.836,10.041-1.034,16.159
			c-1.428,43.983,1.639,42.534,14.717,48.818c13.078,6.283,20.194,7.84,24.557,7.84c4.363,0,6.669-4.585,1.14-7.249
			c-5.53-2.662-31.273,0.253-33.176-17.9c0-14.819-0.801-29.859,0.161-41.864c0.137-1.697,0.293-3.342,0.465-4.932l0.32,0.04
			c1.354,0.173,2.592-0.783,2.764-2.138l0.104-0.815c0.173-1.354-0.784-2.59-2.138-2.763l-0.318-0.041
			c0.167-1.133,0.344-2.23,0.529-3.286l0.806,0.138c1.346,0.229,2.621-0.673,2.851-2.019l0.138-0.81
			c0.195-1.135-0.422-2.213-1.426-2.662c-0.298-0.321-0.681-0.56-1.123-0.686c1.347-5.561,2.933-9.407,4.51-11.069v75.144
			c0,2.864,2.321,5.189,5.186,5.189h49.944v-97.161h-1.626V611.462z"/>
		<path style="fill:#58595B;" d="M752.191,617.082h-68.898v-7.084h-27.647v7.084h-6.179v97.161h102.724
			c2.865,0,5.186-2.324,5.186-5.189v-86.787C757.378,619.403,755.057,617.082,752.191,617.082z M708.5,708.062
			c-19.94,0-36.104-16.163-36.104-36.103c0-19.94,16.164-36.103,36.104-36.103c19.939,0,36.103,16.164,36.103,36.103
			C744.603,691.898,728.439,708.062,708.5,708.062z M741.107,643.824c-2.29,0-4.146-1.856-4.146-4.147
			c0-2.29,1.857-4.146,4.146-4.146c2.29,0,4.147,1.856,4.147,4.146C745.254,641.968,743.397,643.824,741.107,643.824z
			 M751.109,631.628h-35.453v-8.782h35.453V631.628z"/>
	</g>
	<g>
		<path style="fill:#58595B;" d="M56.663,108.706v74.648c0,6.639,5.379,12.018,12.018,12.018h46.189
			c7.001,4.575,15.355,7.259,24.344,7.259c8.989,0,17.339-2.684,24.343-7.259h31.457c6.637,0,12.016-5.379,12.016-12.018v-74.648
			H56.663z M189.541,111.903c2.111,0,3.821,1.711,3.821,3.821c0,2.111-1.71,3.821-3.821,3.821c-2.11,0-3.821-1.709-3.821-3.821
			C185.72,113.614,187.431,111.903,189.541,111.903z M83.919,121.646c0,3.509,0,61.024,0,61.024h-7.735c0,0,0-58.231,0-63.031
			c0-4.798,9.669-8.307,11.46-6.66C89.434,114.625,83.919,118.133,83.919,121.646z M138.926,191.55
			c-21.518,0-38.966-17.444-38.966-38.963c0-21.518,17.448-38.967,38.966-38.967c21.52,0,38.965,17.448,38.965,38.967
			C177.892,174.106,160.446,191.55,138.926,191.55z M199.093,181.237h-16.809v-9.262h16.809V181.237z"/>
		<path style="fill:#58595B;" d="M195.014,96.528c0,0-0.269,0-0.698,0v-9.837h-25.018v9.768
			c-6.085-0.721-10.984-14.829-10.984-14.829h-39.252c0,0-5.442,14.898-11.461,14.898c-0.027,0-0.063,0-0.093,0v-9.263H82.486v9.263
			c-7.552,0-13.805,0-13.805,0c-5.906,0-10.793,4.269-11.803,9.885h149.937C205.807,100.797,200.919,96.528,195.014,96.528z
			 M154.779,98.344h-29.796v-11.27h29.796V98.344z"/>
		<path style="fill:#58595B;" d="M139.077,132.319c-11.351,0-20.585,9.234-20.585,20.584c0,11.351,9.234,20.585,20.585,20.585
			c11.351,0,20.584-9.234,20.584-20.585C159.662,141.553,150.428,132.319,139.077,132.319z"/>
		<path style="fill:#58595B;" d="M138.926,124.796c-15.349,0-27.79,12.44-27.79,27.79c0,15.349,12.441,27.79,27.79,27.79
			c15.352,0,27.792-12.442,27.792-27.79C166.719,137.236,154.278,124.796,138.926,124.796z M139.077,175.352
			c-12.378,0-22.449-10.071-22.449-22.449c0-12.378,10.071-22.449,22.449-22.449c12.378,0,22.449,10.07,22.449,22.449
			C161.526,165.282,151.456,175.352,139.077,175.352z"/>
	</g>
	<g>
		<path style="fill:#58595B;" d="M635.17,432.755c-1.156,0-2.093,0.938-2.093,2.093c0,1.155,0.937,2.093,2.093,2.093
			c1.156,0,2.092-0.938,2.092-2.093C637.262,433.692,636.326,432.755,635.17,432.755z"/>
		<path style="fill:#58595B;" d="M673.063,379.905c-16.413,0-29.723,13.308-29.723,29.726c0,16.417,13.31,29.722,29.723,29.722
			c16.416,0,29.726-13.305,29.726-29.722C702.789,393.213,689.479,379.905,673.063,379.905z M673.458,432.402
			c-12.502,0-22.639-10.136-22.639-22.641c0-12.503,10.137-22.638,22.639-22.638c12.504,0,22.641,10.135,22.641,22.638
			C696.099,422.267,685.962,432.402,673.458,432.402z"/>
		<path style="fill:#58595B;" d="M740.99,363.301v-2.669h6.458v-11.154h-20.743v11.154h5.87v2.658l-10.337-0.013v-13.882
			l-63.936-0.028v7.517h-5.964v-1.83h3.196v-5.522h-10.269v5.522h2.906v1.83h-7.131v5.115c0,0-5.542,0-12.757,0v-2.468h5.683v-9.82
			h-18.261v9.82h5.169v2.468C616.784,362,612.582,362,608.804,362v-2.469h5.685v-9.82h-18.262v9.82h5.167V362
			c-2.406,0-4.239,0-5.167,0v73.498c0,7.015,5.6,12.701,12.508,12.701h126.338c6.908,0,12.508-5.686,12.508-12.701v-72.189
			L740.99,363.301z M602.893,371.532c-1.755,0-3.178-1.423-3.178-3.178c0-1.754,1.423-3.178,3.178-3.178
			c1.754,0,3.178,1.424,3.178,3.178C606.07,370.109,604.646,371.532,602.893,371.532z M612.891,371.648
			c-1.756,0-3.179-1.423-3.179-3.177c0-1.755,1.423-3.178,3.179-3.178c1.754,0,3.177,1.423,3.177,3.178
			C616.067,370.225,614.644,371.648,612.891,371.648z M622.636,371.783c-1.755,0-3.179-1.423-3.179-3.177
			c0-1.755,1.424-3.178,3.179-3.178c1.754,0,3.178,1.422,3.178,3.178C625.813,370.36,624.39,371.783,622.636,371.783z
			 M732.894,366.842c1.755,0,3.179,1.423,3.179,3.178c0,1.755-1.424,3.178-3.179,3.178c-1.754,0-3.177-1.423-3.177-3.178
			C729.718,368.265,731.141,366.842,732.894,366.842z M665.315,354.365h20.691v9.183h-20.691V354.365z M673.063,447.136
			c-12.153,0-22.95-5.784-29.805-14.746l-8.977,6.878l-3.677-4.797l9.369-7.179c-2.815-5.265-4.416-11.273-4.416-17.661
			c0-20.717,16.794-37.508,37.506-37.508c20.716,0,37.508,16.791,37.508,37.508C710.571,430.347,693.779,447.136,673.063,447.136z
			 M714.838,363.548h-20.692v-9.183h20.692V363.548z M741.962,432.83h-20.692v-9.183h20.692V432.83z M742.544,373.081
			c-1.755,0-3.179-1.423-3.179-3.177c0-1.755,1.424-3.178,3.179-3.178c1.755,0,3.178,1.422,3.178,3.178
			C745.722,371.658,744.299,373.081,742.544,373.081z"/>
	</g>
	<g>
		<polygon style="fill-rule:evenodd;clip-rule:evenodd;fill:#58595B;" points="361.335,88.613 352.935,88.613 352.935,85.324 
			347.194,85.324 347.194,88.613 338.733,88.613 338.733,91.91 361.335,91.91 		"/>
		<polygon style="fill-rule:evenodd;clip-rule:evenodd;fill:#58595B;" points="476.219,88.498 464.227,88.498 464.227,84.387 
			458.487,84.387 458.487,88.498 446.497,88.498 446.497,91.758 476.219,91.758 		"/>
		<path style="fill-rule:evenodd;clip-rule:evenodd;fill:#58595B;" d="M408.399,128.3c-17.903,0-32.468,14.565-32.468,32.468
			c0,17.9,14.565,32.468,32.468,32.468c17.903,0,32.468-14.567,32.468-32.468C440.867,142.865,426.303,128.3,408.399,128.3z
			 M408.399,183.867c-12.737,0-23.099-10.361-23.099-23.099c0-12.737,10.361-23.102,23.099-23.102s23.099,10.365,23.099,23.102
			C431.498,173.506,421.137,183.867,408.399,183.867z"/>
		<path style="fill-rule:evenodd;clip-rule:evenodd;fill:#58595B;" d="M465.353,127.454l0.147-21.965H347.07v22.094l24.743-0.027
			l0.022,0.433l0.887,16.703c6.173-13.93,19.932-23.634,35.923-23.634c16.723,0,31.005,10.612,36.722,25.572l1.409-19.154
			L465.353,127.454z M375.075,121.806h-22.397v-11.2h22.397V121.806z M432.499,119.019c-1.84,0-3.33-1.491-3.33-3.331
			c0-1.839,1.49-3.33,3.33-3.33c1.84,0,3.33,1.49,3.33,3.33C435.829,117.528,434.339,119.019,432.499,119.019z M438.862,121.502
			v-11.2h22.397v11.2H438.862z"/>
		<path style="fill-rule:evenodd;clip-rule:evenodd;fill:#58595B;" d="M476.202,96.123l0.006-3.371h0.011V92.67h-29.722v0.082h0.038
			l0.004,3.156h-14.291V80.661c0-1.692-2.365-3.078-5.255-3.078h-43.269c-2.893,0-5.257,1.386-5.257,3.078v15.248h-14.576
			l-2.553-3.087h-22.804l-2.653,3.209l-4.883,0.122v96.802l9.801,0.554h33.602v-0.005h0.913v0.005h0.581
			c8.189,8.662,19.777,14.075,32.637,14.075c12.86,0,24.449-5.413,32.637-14.075h0.749l0.001-0.005h0.913v0.005h27.491l9.676-0.413
			V96.261L476.202,96.123z M386,84.166h38.533v11.698H386V84.166z M408.645,201.21c-21.754,0-39.395-17.944-39.395-40.074
			c0-5.109,0.95-9.99,2.664-14.484l-0.965-18.183l-24.791,0.027v-23.92h120.259l-0.156,23.788l-18.637,0.02l-1.501,20.396
			c1.24,3.893,1.918,8.043,1.918,12.356C448.041,183.266,430.399,201.21,408.645,201.21z M475.338,184.326h-21.432v-9.576h21.432
			V184.326z M475.49,170.265h-21.432v-6.992h21.432V170.265z"/>
	</g>
	<g>
		<rect x="121.435" y="327.52" style="fill:#58595B;" width="22.696" height="22.784"/>
		<path style="fill:#58595B;" d="M133.021,427.162c7.222,0,13.098-5.876,13.098-13.098c0-7.222-5.876-13.098-13.098-13.098
			c-7.222,0-13.098,5.876-13.098,13.098C119.922,421.286,125.799,427.162,133.021,427.162L133.021,427.162z M133.021,427.162"/>
		<path style="fill:#58595B;" d="M175.229,348.171l-8.927-20.651h-16.81v26.849h-32.943V327.52h-16.81l-8.927,20.651H59.902v25.481
			v8.981v8.569v45.723v8.569v6.029v3.999c0,7.954,6.448,14.401,14.401,14.401h117.436c7.954,0,14.401-6.448,14.401-14.401v-3.999
			v-6.029v-8.568v-45.724v-8.569v-8.981v-25.481H175.229z M161.372,359.957c2.821,0,5.108,2.287,5.108,5.108
			c0,2.821-2.287,5.108-5.108,5.108c-2.821,0-5.108-2.287-5.108-5.108C156.263,362.243,158.55,359.957,161.372,359.957z
			 M76.304,449.385h-7.005v-70.643h7.005V449.385z M155.476,451.522h0.377c-6.657,4.074-14.473,6.432-22.833,6.432
			c-8.36,0-16.175-2.358-22.833-6.432h0.377c-12.71-7.635-21.216-21.552-21.216-37.459c0-18.254,11.204-33.885,27.107-40.411h-0.54
			c5.26-2.236,11.039-3.479,17.105-3.479s11.845,1.244,17.105,3.479h-0.54c15.903,6.526,27.107,22.157,27.107,40.411
			C176.693,429.97,168.186,443.886,155.476,451.522z M196.826,370.173h-24.704v-10.216h24.704V370.173z"/>
		<path style="fill:#58595B;" d="M132.783,375.09c-21.49,0-38.974,17.484-38.974,38.973c0,21.49,17.484,38.974,38.974,38.974
			c21.488,0,38.972-17.484,38.972-38.974C171.756,392.574,154.272,375.09,132.783,375.09z M132.783,445.729
			c-17.461,0-31.666-14.205-31.666-31.666c0-17.46,14.205-31.664,31.666-31.664c17.462,0,31.665,14.205,31.665,31.664
			C164.448,431.525,150.245,445.729,132.783,445.729z"/>
		<path style="fill:#58595B;" d="M132.783,385.441c-15.785,0-28.622,12.839-28.622,28.621c0,15.782,12.837,28.623,28.622,28.623
			c15.784,0,28.622-12.841,28.622-28.623C161.406,398.281,148.567,385.441,132.783,385.441z M132.783,439.031
			c-13.765,0-24.968-11.202-24.968-24.968c0-13.765,11.204-24.967,24.968-24.967c13.766,0,24.969,11.202,24.969,24.967
			C157.753,427.829,146.549,439.031,132.783,439.031z"/>
	</g>
	<g>
		<path style="fill:#58595B;" d="M416.856,390.232c-11.35,0-20.585,9.234-20.585,20.585c0,11.351,9.234,20.585,20.585,20.585
			c11.351,0,20.585-9.234,20.585-20.585C437.441,399.466,428.207,390.232,416.856,390.232z"/>
		<path style="fill:#58595B;" d="M416.705,382.71c-15.349,0-27.79,12.44-27.79,27.79c0,15.349,12.441,27.79,27.79,27.79
			c15.352,0,27.793-12.442,27.793-27.79C444.498,395.149,432.057,382.71,416.705,382.71z M416.856,433.266
			c-12.378,0-22.449-10.071-22.449-22.449c0-12.378,10.071-22.449,22.449-22.449c12.379,0,22.449,10.07,22.449,22.449
			C439.305,423.195,429.235,433.266,416.856,433.266z"/>
		<g>
			<path style="fill:#58595B;" d="M379.697,344.869h-39.876v18.181h-14.765v95.523h12.988h4.992h9.04h21.577h92.043V363.05h-85.999
				V344.869z M363.087,451.199h-28.088V439.94h28.088V451.199z M363.087,436.08h-28.088v-5.629h28.088V436.08z M373.913,382.038
				c-1.921,0-3.478-1.557-3.478-3.478c0-1.921,1.557-3.478,3.478-3.478c1.921,0,3.478,1.557,3.478,3.478
				C377.391,380.48,375.834,382.038,373.913,382.038z M379.814,400.538c0.066-0.234,0.136-0.467,0.206-0.699
				c0.149-0.495,0.305-0.987,0.473-1.473c0.088-0.254,0.182-0.505,0.276-0.757c0.169-0.458,0.343-0.913,0.529-1.362
				c0.113-0.272,0.234-0.54,0.353-0.809c0.186-0.421,0.374-0.842,0.576-1.255c0.14-0.287,0.289-0.568,0.435-0.851
				c1.945-3.756,4.487-7.153,7.517-10.048c0.066-0.063,0.134-0.123,0.2-0.185c0.447-0.421,0.903-0.832,1.369-1.231
				c0.1-0.086,0.201-0.169,0.302-0.254c0.474-0.397,0.957-0.785,1.451-1.159c0.06-0.046,0.12-0.093,0.181-0.138
				c2.353-1.762,4.915-3.26,7.645-4.447h-0.02c4.661-2.037,9.8-3.177,15.204-3.177s10.543,1.14,15.204,3.177h-0.02
				c2.73,1.186,5.292,2.685,7.644,4.447c0.061,0.046,0.121,0.093,0.182,0.139c0.493,0.374,0.976,0.761,1.449,1.158
				c0.101,0.085,0.203,0.169,0.303,0.255c0.466,0.398,0.921,0.808,1.366,1.228c0.067,0.063,0.137,0.124,0.203,0.188
				c3.029,2.896,5.571,6.292,7.516,10.048c0.147,0.283,0.295,0.564,0.435,0.851c0.201,0.413,0.389,0.833,0.576,1.255
				c0.119,0.269,0.24,0.537,0.353,0.809c0.186,0.449,0.36,0.905,0.529,1.362c0.093,0.252,0.188,0.503,0.276,0.757
				c0.168,0.486,0.324,0.978,0.473,1.473c0.07,0.233,0.14,0.465,0.206,0.699c0.146,0.521,0.279,1.047,0.403,1.577
				c0.656,2.796,1.02,5.703,1.02,8.697c0,21.018-17.099,38.119-38.119,38.119s-38.119-17.101-38.119-38.119
				c0-2.993,0.364-5.901,1.02-8.697C379.535,401.585,379.668,401.059,379.814,400.538z"/>
			<polygon style="fill:#58595B;" points="467.783,363.05 467.783,458.573 479.338,458.573 479.338,402.478 479.338,392.48 
				479.338,383.44 479.338,375.87 479.338,363.05 			"/>
		</g>
	</g>
	<g>
		<path style="fill:#58595B;" d="M443.389,694.856c4.733,0,8.582-3.85,8.582-8.582c0-4.733-3.85-8.583-8.582-8.583
			s-8.582,3.85-8.582,8.583C434.807,691.006,438.657,694.856,443.389,694.856L443.389,694.856z M443.389,694.856"/>
		<rect x="346.312" y="658.906" style="fill:#58595B;" width="58.551" height="35.95"/>
		<path style="fill:#58595B;" d="M455.573,627.723v-9.155h-32.995v9.155h-18.979l-3.052-17.261h-52.971l-3.052,17.261h-17.762
			v81.604c0,6.86,5.561,12.42,12.42,12.42h121.632c6.86,0,12.42-5.561,12.42-12.42v-81.604H455.573z M366.434,627.723h15.257v8.582
			h-15.257V627.723z M413.446,703.438h-75.716v-53.115h75.716V703.438z M451.333,654.53c2.417,0,4.376,1.959,4.376,4.376
			c0,2.417-1.959,4.376-4.376,4.376c-2.417,0-4.376-1.959-4.376-4.376C446.957,656.489,448.916,654.53,451.333,654.53z
			 M435.445,654.53c2.417,0,4.376,1.959,4.376,4.376c0,2.417-1.959,4.376-4.376,4.376c-2.417,0-4.376-1.959-4.376-4.376
			C431.07,656.489,433.029,654.53,435.445,654.53z M443.389,703.438c-9.465,0-17.165-7.7-17.165-17.165
			c0-9.465,7.7-17.165,17.165-17.165c9.464,0,17.165,7.7,17.165,17.165C460.554,695.738,452.853,703.438,443.389,703.438z"/>
	</g>
</g>
</svg>
