<svg width="200" height="200" viewBox="0 0 80 80" fill="none" xmlns="http://www.w3.org/2000/svg">
<path d="M33.3333 6.66663L30 9.99996H16.6667C14.6667 9.99996 13.3333 11.3333 13.3333 13.3333C13.3333 15.3333 14.6667 16.6666 16.6667 16.6666H23.3333H56.6667H63.3333C65.3333 16.6666 66.6667 15.3333 66.6667 13.3333C66.6667 11.3333 65.3333 9.99996 63.3333 9.99996H50L46.6667 6.66663H33.3333ZM16.6667 23.3333V66.6666C16.6667 70.3333 19.6667 73.3333 23.3333 73.3333H56.6667C60.3333 73.3333 63.3333 70.3333 63.3333 66.6666V23.3333H16.6667ZM30 30C32 30 33.3333 31.3333 33.3333 33.3333V63.3333C33.3333 65.3333 32 66.6666 30 66.6666C28 66.6666 26.6667 65.3333 26.6667 63.3333V33.3333C26.6667 31.3333 28 30 30 30ZM50 30C52 30 53.3333 31.3333 53.3333 33.3333V63.3333C53.3333 65.3333 52 66.6666 50 66.6666C48 66.6666 46.6667 65.3333 46.6667 63.3333V33.3333C46.6667 31.3333 48 30 50 30Z" fill="#B45B5B"/>
</svg>
